<?xml version="1.0" encoding="iso-8859-1"?>
<!-- Generator: Adobe Illustrator 19.0.0, SVG Export Plug-In . SVG Version: 6.00 Build 0)  -->
<svg version="1.1" id="Layer_1" xmlns="http://www.w3.org/2000/svg" x="0px" y="0px"
	 viewBox="0 0 297 297" style="enable-background:new 0 0 297 297;" xml:space="preserve">
<g>
	<path style="fill:#DBB87F;" d="M165.71,17.21c-5.314,0-10.515,0.973-15.389,2.854c-7.673-12.236-21.217-19.998-36.067-20.058
		c-0.058,0-0.116-0.006-0.174-0.006C99.162,0,85.543,7.78,77.839,20.064c-4.874-1.881-10.075-2.854-15.389-2.854
		c-23.58,0-42.764,19.184-42.764,42.764c0,4.608,3.736,8.344,8.344,8.344s8.344-3.736,8.344-8.344h77.879h77.531
		c0,4.608,3.736,8.344,8.344,8.344s8.344-3.736,8.344-8.344C208.474,36.394,189.29,17.21,165.71,17.21z"/>
	<path style="fill:#FCDFA7;" d="M114.08,0C99.162,0,85.543,7.78,77.839,20.064c-4.874-1.881-10.075-2.854-15.389-2.854
		c-23.58,0-42.764,19.184-42.764,42.764c0,4.608,3.736,8.344,8.344,8.344s8.344-3.736,8.344-8.344h77.879V0.006
		C114.196,0.005,114.139,0,114.08,0z"/>
	<path style="fill:#DBB87F;" d="M165.71,17.21c-5.314,0-10.515,0.973-15.389,2.854c-7.673-12.236-21.217-19.998-36.067-20.058
		v59.968h77.531c0,4.608,3.736,8.344,8.344,8.344s8.344-3.736,8.344-8.344C208.474,36.394,189.29,17.21,165.71,17.21z"/>
	<path style="fill:#EFB541;" d="M114.255,64.928H28.031V249.63c0,21.554,17.473,39.026,39.026,39.026h47.197h46.849
		c21.554,0,39.026-17.473,39.026-39.026V64.928H114.255z"/>
	<path style="fill:#FCD067;" d="M28.031,64.928V249.63c0,21.554,17.473,39.026,39.026,39.026h47.197V64.928H28.031z"/>
	<path style="fill:#EFB541;" d="M114.255,64.928v223.728h46.849c21.554,0,39.026-17.473,39.026-39.026V64.928H114.255z"/>
	<g>
		<path style="fill:#FA961E;" d="M68.187,103.911c-4.608,0-8.344,3.736-8.344,8.344v129.074c0,4.608,3.736,8.344,8.344,8.344
			s8.344-3.736,8.344-8.344V112.255C76.532,107.647,72.795,103.911,68.187,103.911z"/>
		<path style="fill:#FA961E;" d="M114.255,103.92c-0.059-0.001-0.115-0.009-0.174-0.009c-4.608,0-8.344,3.736-8.344,8.344v129.074
			c0,4.608,3.736,8.344,8.344,8.344c0.059,0,0.116-0.008,0.174-0.009c4.527-0.094,8.17-3.786,8.17-8.335V112.255
			C122.425,107.706,118.781,104.013,114.255,103.92z"/>
		<path style="fill:#E27D0E;" d="M114.255,103.92v145.745c4.527-0.094,8.17-3.786,8.17-8.335V112.255
			C122.424,107.706,118.781,104.013,114.255,103.92z"/>
		<path style="fill:#FA961E;" d="M114.08,103.911c-4.608,0-8.344,3.736-8.344,8.344v129.074c0,4.608,3.736,8.344,8.344,8.344
			c0.059,0,0.116-0.008,0.174-0.009V103.92C114.196,103.918,114.139,103.911,114.08,103.911z"/>
		<path style="fill:#E27D0E;" d="M159.973,103.911c-4.608,0-8.344,3.736-8.344,8.344v129.074c0,4.608,3.736,8.344,8.344,8.344
			s8.344-3.736,8.344-8.344V112.255C168.317,107.647,164.581,103.911,159.973,103.911z"/>
		<path style="fill:#FA961E;" d="M232.289,91.003h-23.815V64.928c0-4.608-3.736-8.344-8.344-8.344h-85.875H28.031
			c-4.608,0-8.344,3.736-8.344,8.344V249.63c0,26.119,21.25,47.37,47.37,47.37h47.198h46.848c26.12,0,47.371-21.25,47.371-47.37
			v-21.469h23.815c24.827,0,45.024-20.197,45.024-45.023v-47.111C277.313,111.201,257.116,91.003,232.289,91.003z M191.785,249.63
			c0,16.917-13.764,30.682-30.683,30.682h-46.848H67.057c-16.917,0-30.682-13.764-30.682-30.682V73.272h77.879h77.531V249.63z
			 M260.625,183.138c0,15.624-12.712,28.335-28.336,28.335h-23.815V107.692h23.815c15.624,0,28.336,12.711,28.336,28.335V183.138z"
			/>
		<path style="fill:#E27D0E;" d="M232.289,91.004h-23.815V64.928c0-4.608-3.736-8.344-8.344-8.344h-85.875v16.688h77.531V249.63
			c0,16.917-13.764,30.682-30.683,30.682h-46.848V297h46.848c26.12,0,47.371-21.251,47.371-47.37v-21.47h23.815
			c24.827,0,45.024-20.197,45.024-45.023v-47.111C277.313,111.201,257.116,91.004,232.289,91.004z M260.625,183.138
			c0,15.624-12.712,28.335-28.336,28.335h-23.815V107.692h23.815c15.624,0,28.336,12.711,28.336,28.335V183.138z"/>
		<path style="fill:#FA961E;" d="M67.057,280.312c-16.917,0-30.681-13.764-30.681-30.682V73.272h77.879V56.584H28.031
			c-4.608,0-8.344,3.736-8.344,8.344V249.63c0,26.119,21.251,47.37,47.37,47.37h47.198v-16.688H67.057z"/>
	</g>
</g>
<g>
</g>
<g>
</g>
<g>
</g>
<g>
</g>
<g>
</g>
<g>
</g>
<g>
</g>
<g>
</g>
<g>
</g>
<g>
</g>
<g>
</g>
<g>
</g>
<g>
</g>
<g>
</g>
<g>
</g>
</svg>
