<?xml version="1.0" encoding="iso-8859-1"?>
<!-- Generator: Adobe Illustrator 19.0.0, SVG Export Plug-In . SVG Version: 6.00 Build 0)  -->
<svg version="1.1" id="Layer_1" xmlns="http://www.w3.org/2000/svg" x="0px" y="0px"
	 viewBox="0 0 512 512" style="enable-background:new 0 0 512 512;" xml:space="preserve">
<circle style="fill:#FFD77D;" cx="140.579" cy="114.759" r="70.621"/>
<path style="fill:#FFAA64;" d="M140.582,194.208c-43.81,0-79.448-35.638-79.448-79.448s35.638-79.448,79.448-79.448
	S220.03,70.95,220.03,114.76S184.393,194.208,140.582,194.208z M140.582,52.967c-34.069,0-61.793,27.724-61.793,61.793
	s27.724,61.793,61.793,61.793s61.793-27.724,61.793-61.793S174.651,52.967,140.582,52.967z"/>
<path style="fill:#7DD2F0;" d="M395.996,5.657c-1.759-4.552-6.871-6.81-11.414-5.069l-103.43,39.785
	c-10.155,3.905-16.983,13.836-16.983,24.724v102.628h17.655V65.096c0-3.629,2.276-6.94,5.664-8.242L390.926,17.07
	C395.47,15.321,397.746,10.208,395.996,5.657z"/>
<path style="fill:#E4EAF6;" d="M96.589,110.776l176.408,268.812l176.408-268.812c3.852-5.87-0.359-13.671-7.38-13.671H103.969
	C96.947,97.105,92.737,104.906,96.589,110.776z"/>
<path style="fill:#D7DEED;" d="M227.913,110.775c-0.984-5.87,0.945-13.671,9.772-13.671H103.969c-7.021,0-11.233,7.799-7.38,13.671
	l176.408,268.812L227.913,110.775z"/>
<path style="fill:#C3CCE0;" d="M334.789,494.345h-8.828c-24.336,0-44.138-19.801-44.138-44.138c0,0-0.024-39.149-0.046-73.444
	c-0.004-6.892,2.008-13.617,5.79-19.379l20.12-30.659c-11.01,5.631-22.639,8.723-34.69,8.723c-12.051,0-23.68-3.093-34.69-8.723
	l20.12,30.66c3.781,5.762,5.794,12.487,5.79,19.379c-0.023,34.294-0.047,73.443-0.047,73.443c0,24.337-19.801,44.138-44.138,44.138
	h-8.828c-4.879,0-8.828,3.948-8.828,8.828c0,4.879,3.948,8.828,8.828,8.828H334.79c4.879,0,8.828-3.948,8.828-8.828
	C343.617,498.293,339.668,494.345,334.789,494.345z"/>
<polygon style="fill:#FFE6AF;" points="368.768,185.38 380.354,167.725 165.637,167.725 177.223,185.38 "/>
<polygon style="fill:#82F0C8;" points="368.768,185.38 177.223,185.38 211.982,238.346 334.01,238.346 "/>
<path style="fill:#7DD2F0;" d="M211.982,238.346l46.253,70.48c6.973,10.625,22.549,10.625,29.52,0l46.253-70.48L211.982,238.346
	L211.982,238.346z"/>
<path style="fill:#64B9DC;" d="M249.309,238.346h-37.326l46.253,70.48c1.007,1.535,2.229,2.782,3.543,3.874L249.309,238.346z"/>
<polygon style="fill:#6EDCC3;" points="240.425,185.38 177.223,185.38 211.982,238.346 249.309,238.346 "/>
<polygon style="fill:#FFD2AA;" points="237.465,167.725 165.637,167.725 177.223,185.38 240.425,185.38 "/>
<rect x="264.165" y="97.104" style="fill:#B0DEF3;" width="17.655" height="70.621"/>
<path style="fill:#F2DEB9;" d="M96.589,110.775l48.8,74.362c36.75-2.481,65.815-32.997,65.815-70.377
	c0-6.108-0.856-12.002-2.315-17.655h-104.92C96.947,97.105,92.737,104.905,96.589,110.775z"/>
<path style="fill:#EBC4A8;" d="M220.03,114.76c0-6.076-0.748-11.968-2.046-17.655h-18.212c1.674,5.599,2.603,11.518,2.603,17.655
	c0,34.069-27.724,61.793-61.793,61.793c-0.289,0-0.568-0.039-0.855-0.043l11.127,16.957
	C189.818,188.404,220.03,155.081,220.03,114.76z"/>
<g>
</g>
<g>
</g>
<g>
</g>
<g>
</g>
<g>
</g>
<g>
</g>
<g>
</g>
<g>
</g>
<g>
</g>
<g>
</g>
<g>
</g>
<g>
</g>
<g>
</g>
<g>
</g>
<g>
</g>
</svg>
