<?xml version="1.0" standalone="no"?>
<!DOCTYPE svg PUBLIC "-//W3C//DTD SVG 20010904//EN"
 "http://www.w3.org/TR/2001/REC-SVG-20010904/DTD/svg10.dtd">
<svg version="1.0" xmlns="http://www.w3.org/2000/svg"
 width="981.000000pt" height="980.000000pt" viewBox="0 0 981.000000 980.000000"
 preserveAspectRatio="xMidYMid meet">

<g transform="translate(0.000000,980.000000) scale(0.100000,-0.100000)"
fill="#000000" stroke="none">
<path d="M4046 9785 c-49 -17 -82 -41 -117 -86 -19 -23 -333 -846 -1013 -2654
-909 -2415 -986 -2625 -986 -2680 1 -78 25 -130 84 -182 123 -108 312 -67 378
84 15 32 443 1165 953 2518 509 1353 929 2463 933 2467 4 4 435 -94 957 -218
523 -123 1333 -315 1800 -425 468 -111 1151 -272 1518 -359 367 -87 670 -160
672 -162 6 -6 -552 -1644 -914 -2679 -638 -1830 -1123 -3135 -1383 -3719 -244
-548 -558 -941 -884 -1103 -142 -71 -302 -102 -451 -87 -146 15 -255 50 -424
136 -360 184 -572 467 -635 852 -20 119 -14 382 11 482 8 36 18 98 22 137 5
65 3 78 -22 128 -17 36 -42 67 -69 86 -22 17 -324 173 -671 346 -346 174 -652
328 -680 343 -27 15 -651 329 -1386 699 -929 466 -1350 673 -1380 677 -90 12
-197 -40 -244 -120 -27 -47 -52 -184 -79 -446 -72 -686 -36 -1181 110 -1478
72 -147 208 -273 529 -486 554 -369 1549 -902 2740 -1467 230 -109 243 -114
305 -113 221 0 327 267 168 421 -20 19 -109 67 -218 119 -102 47 -369 177
-595 288 -1327 654 -2299 1216 -2465 1427 -73 91 -101 243 -108 579 -4 237 10
588 27 631 5 15 274 -118 1711 -841 938 -473 1725 -871 1750 -884 l45 -25 -5
-78 c-9 -138 -4 -386 9 -473 86 -575 413 -1005 966 -1271 545 -263 1067 -212
1530 149 104 81 294 272 385 387 176 224 355 534 490 850 374 873 1064 2776
1952 5380 346 1014 438 1295 438 1333 0 50 -23 116 -56 159 -51 67 -75 75
-750 234 -3200 754 -4851 1139 -4877 1139 -18 -1 -50 -7 -71 -15z"/>
<path d="M4740 8307 c-108 -31 -190 -99 -238 -197 -23 -47 -27 -67 -27 -145 0
-78 4 -98 29 -152 104 -226 402 -277 579 -101 73 73 102 143 102 248 0 76 -3
92 -32 151 -60 121 -170 196 -300 205 -40 2 -87 -1 -113 -9z"/>
<path d="M5530 7920 c-56 -26 -96 -63 -123 -115 -30 -56 -30 -164 0 -221 27
-51 90 -108 134 -122 19 -6 552 -161 1184 -344 1287 -373 1241 -362 1338 -305
94 56 142 164 117 266 -15 64 -63 129 -115 158 -22 12 -238 79 -480 148 -242
70 -766 221 -1165 337 -446 129 -748 211 -785 214 -47 4 -70 0 -105 -16z"/>
<path d="M4131 6791 c-107 -40 -197 -135 -228 -240 -35 -122 6 -270 99 -357
184 -172 469 -116 576 114 22 48 27 71 26 142 0 72 -4 94 -28 147 -34 74 -113
154 -183 184 -71 31 -192 35 -262 10z"/>
<path d="M4975 6418 c-104 -37 -169 -130 -169 -238 0 -46 6 -77 21 -106 25
-47 85 -104 128 -122 17 -6 554 -162 1195 -347 1225 -352 1228 -353 1308 -320
49 21 110 80 133 130 56 121 -13 281 -142 329 -24 8 -231 69 -459 135 -228 66
-750 216 -1161 335 -448 130 -761 216 -785 215 -21 0 -52 -5 -69 -11z"/>
<path d="M3579 5286 c-102 -27 -190 -103 -237 -205 -22 -46 -27 -71 -27 -141
0 -76 3 -92 32 -151 39 -79 102 -140 181 -177 49 -23 70 -27 147 -27 78 1 98
4 147 29 73 35 139 100 175 174 25 50 28 68 28 152 0 112 -18 161 -87 236 -55
60 -104 91 -175 109 -68 18 -121 18 -184 1z"/>
<path d="M4392 4902 c-63 -23 -114 -69 -143 -129 -17 -36 -20 -58 -17 -118 3
-62 8 -80 33 -117 17 -23 48 -55 70 -70 31 -20 320 -108 1224 -368 1098 -317
1189 -342 1247 -338 126 8 212 96 222 227 4 58 1 77 -17 115 -28 56 -85 108
-142 129 -81 30 -2343 678 -2384 683 -25 3 -60 -3 -93 -14z"/>
</g>
</svg>
