<svg width="64px" height="64px" viewBox="0 0 64 64" xmlns="http://www.w3.org/2000/svg"><title>acohol</title><g id="acohol"><circle cx="27.685" cy="31.146" r="23" style="fill:#edebdc"/><circle cx="49.975" cy="30.5" r="1.025" style="fill:#4c241d"/><circle cx="39" cy="8" r="2" style="fill:none;stroke:#4c241d;stroke-linecap:round;stroke-linejoin:round;stroke-width:2px"/><line x1="39.137" y1="16.697" x2="39.137" y2="18.112" style="fill:none;stroke:#4c241d;stroke-linecap:round;stroke-linejoin:round;stroke-width:2px"/><line x1="39.137" y1="22.356" x2="39.137" y2="23.771" style="fill:none;stroke:#4c241d;stroke-linecap:round;stroke-linejoin:round;stroke-width:2px"/><line x1="35.6" y1="20.234" x2="37.014" y2="20.234" style="fill:none;stroke:#4c241d;stroke-linecap:round;stroke-linejoin:round;stroke-width:2px"/><line x1="41.259" y1="20.234" x2="42.674" y2="20.234" style="fill:none;stroke:#4c241d;stroke-linecap:round;stroke-linejoin:round;stroke-width:2px"/><rect x="16" y="14" width="8" height="5" style="fill:#fff;stroke:#4c241d;stroke-linecap:round;stroke-linejoin:round;stroke-width:2px"/><path d="M31.145,59H31V20.38a1.647,1.647,0,0,0-1.359-1.621L20,17l-9.656,1.749A1.646,1.646,0,0,0,9,20.367V59H8.855A1.856,1.856,0,0,0,7,60.855V63H33V60.855A1.856,1.856,0,0,0,31.145,59Z" style="fill:#fff;stroke:#4c241d;stroke-linecap:round;stroke-linejoin:round;stroke-width:2px"/><rect x="16" y="1" width="8" height="13" style="fill:#c1dbdc;stroke:#4c241d;stroke-linecap:round;stroke-linejoin:round;stroke-width:2px"/><line x1="31" y1="59" x2="13" y2="59" style="fill:none;stroke:#4c241d;stroke-linecap:round;stroke-linejoin:round;stroke-width:2px"/><rect x="16" y="1" width="3" height="8" style="fill:#ffce56;stroke:#4c241d;stroke-linecap:round;stroke-linejoin:round;stroke-width:2px"/><line x1="20" y1="26" x2="20" y2="22" style="fill:none;stroke:#4c241d;stroke-linecap:round;stroke-linejoin:round;stroke-width:2px"/><line x1="23" y1="27" x2="25" y2="25" style="fill:none;stroke:#4c241d;stroke-linecap:round;stroke-linejoin:round;stroke-width:2px"/><line x1="17" y1="27" x2="15" y2="25" style="fill:none;stroke:#4c241d;stroke-linecap:round;stroke-linejoin:round;stroke-width:2px"/><rect x="9" y="33" width="22" height="13" style="fill:#c1dbdc;stroke:#4c241d;stroke-linecap:round;stroke-linejoin:round;stroke-width:2px"/><polygon points="47 60 38 60 37 48 48 48 47 60" style="fill:#e5efef;stroke:#4c241d;stroke-linecap:round;stroke-linejoin:round;stroke-width:2px"/><rect x="38" y="60" width="9" height="3" style="fill:#e5efef;stroke:#4c241d;stroke-linecap:round;stroke-linejoin:round;stroke-width:2px"/><polygon points="37.308 52 38 60 47 60 47.692 52 37.308 52" style="fill:#fff;stroke:#4c241d;stroke-linecap:round;stroke-linejoin:round;stroke-width:2px"/><polygon points="61 60 52 60 51 48 62 48 61 60" style="fill:#e5efef;stroke:#4c241d;stroke-linecap:round;stroke-linejoin:round;stroke-width:2px"/><rect x="52" y="60" width="9" height="3" style="fill:#e5efef;stroke:#4c241d;stroke-linecap:round;stroke-linejoin:round;stroke-width:2px"/><polygon points="51.308 52 52 60 61 60 61.692 52 51.308 52" style="fill:#fff;stroke:#4c241d;stroke-linecap:round;stroke-linejoin:round;stroke-width:2px"/><rect x="20" y="37" width="3" height="5" rx="1.5" ry="1.5" style="fill:none;stroke:#4c241d;stroke-linecap:round;stroke-linejoin:round;stroke-width:2px"/><line x1="26" y1="36" x2="26" y2="37" style="fill:none;stroke:#4c241d;stroke-linecap:round;stroke-linejoin:round;stroke-width:2px"/><line x1="17" y1="37" x2="17" y2="42" style="fill:none;stroke:#4c241d;stroke-linecap:round;stroke-linejoin:round;stroke-width:2px"/><polyline points="14 37 14 40 17 40" style="fill:none;stroke:#4c241d;stroke-linecap:round;stroke-linejoin:round;stroke-width:2px"/></g></svg>